<svg width="16" height="16" viewBox="0 0 16 16" fill="none" xmlns="http://www.w3.org/2000/svg">
<path d="M10.5333 1.47333C10.26 1.2 9.78668 1.38667 9.78668 1.76667V4.09333C9.78668 5.06667 10.6133 5.87333 11.62 5.87333C12.2533 5.88 13.1333 5.88 13.8867 5.88C14.2667 5.88 14.4667 5.43333 14.2 5.16667C13.24 4.2 11.52 2.46 10.5333 1.47333Z" fill="white"/>
<path d="M13.6667 6.79333H11.74C10.16 6.79333 8.87335 5.50666 8.87335 3.92666V1.99999C8.87335 1.63333 8.57335 1.33333 8.20669 1.33333H5.38002C3.32669 1.33333 1.66669 2.66666 1.66669 5.04666V10.9533C1.66669 13.3333 3.32669 14.6667 5.38002 14.6667H10.62C12.6734 14.6667 14.3334 13.3333 14.3334 10.9533V7.45999C14.3334 7.09333 14.0334 6.79333 13.6667 6.79333ZM7.66669 11.8333H5.00002C4.72669 11.8333 4.50002 11.6067 4.50002 11.3333C4.50002 11.06 4.72669 10.8333 5.00002 10.8333H7.66669C7.94002 10.8333 8.16669 11.06 8.16669 11.3333C8.16669 11.6067 7.94002 11.8333 7.66669 11.8333ZM9.00002 9.16666H5.00002C4.72669 9.16666 4.50002 8.93999 4.50002 8.66666C4.50002 8.39333 4.72669 8.16666 5.00002 8.16666H9.00002C9.27335 8.16666 9.50002 8.39333 9.50002 8.66666C9.50002 8.93999 9.27335 9.16666 9.00002 9.16666Z" fill="white"/>
</svg>
