<svg width="16" height="16" viewBox="0 0 16 16" fill="none" xmlns="http://www.w3.org/2000/svg">
<path d="M7.99998 1.33333C6.25331 1.33333 4.83331 2.75333 4.83331 4.49999C4.83331 6.21333 6.17331 7.59999 7.91998 7.65999C7.97331 7.65333 8.02665 7.65333 8.06665 7.65999C8.07998 7.65999 8.08665 7.65999 8.09998 7.65999C8.10665 7.65999 8.10665 7.65999 8.11331 7.65999C9.81998 7.59999 11.16 6.21333 11.1666 4.49999C11.1666 2.75333 9.74665 1.33333 7.99998 1.33333Z" fill="white"/>
<path d="M11.3866 9.43333C9.52664 8.19333 6.49331 8.19333 4.61997 9.43333C3.77331 9.99999 3.30664 10.7667 3.30664 11.5867C3.30664 12.4067 3.77331 13.1667 4.61331 13.7267C5.54664 14.3533 6.77331 14.6667 7.99997 14.6667C9.22664 14.6667 10.4533 14.3533 11.3866 13.7267C12.2266 13.16 12.6933 12.4 12.6933 11.5733C12.6866 10.7533 12.2266 9.99333 11.3866 9.43333Z" fill="white"/>
</svg>
