<svg width="20" height="20" viewBox="0 0 20 20" fill="none" xmlns="http://www.w3.org/2000/svg">
<path d="M15 10.8317H10.8334V14.9984C10.8334 15.2194 10.7456 15.4313 10.5893 15.5876C10.433 15.7439 10.221 15.8317 10 15.8317C9.77901 15.8317 9.56705 15.7439 9.41077 15.5876C9.25448 15.4313 9.16669 15.2194 9.16669 14.9984V10.8317H5.00002C4.77901 10.8317 4.56705 10.7439 4.41076 10.5876C4.25448 10.4313 4.16669 10.2194 4.16669 9.99837C4.16669 9.77736 4.25448 9.5654 4.41076 9.40912C4.56705 9.25284 4.77901 9.16504 5.00002 9.16504H9.16669V4.99837C9.16669 4.77736 9.25448 4.5654 9.41077 4.40912C9.56705 4.25284 9.77901 4.16504 10 4.16504C10.221 4.16504 10.433 4.25284 10.5893 4.40912C10.7456 4.5654 10.8334 4.77736 10.8334 4.99837V9.16504H15C15.221 9.16504 15.433 9.25284 15.5893 9.40912C15.7456 9.5654 15.8334 9.77736 15.8334 9.99837C15.8334 10.2194 15.7456 10.4313 15.5893 10.5876C15.433 10.7439 15.221 10.8317 15 10.8317Z" fill="white"/>
</svg>
