<svg width="16" height="17" viewBox="0 0 16 17" fill="none" xmlns="http://www.w3.org/2000/svg">
<g clip-path="url(#clip0_7_840)">
<path d="M3.99998 13.1667C3.99998 13.9 4.59998 14.5 5.33331 14.5H10.6666C11.4 14.5 12 13.9 12 13.1667V6.5C12 5.76667 11.4 5.16667 10.6666 5.16667H5.33331C4.59998 5.16667 3.99998 5.76667 3.99998 6.5V13.1667ZM12 3.16667H10.3333L9.85998 2.69333C9.73998 2.57333 9.56665 2.5 9.39331 2.5H6.60665C6.43331 2.5 6.25998 2.57333 6.13998 2.69333L5.66665 3.16667H3.99998C3.63331 3.16667 3.33331 3.46667 3.33331 3.83333C3.33331 4.2 3.63331 4.5 3.99998 4.5H12C12.3666 4.5 12.6666 4.2 12.6666 3.83333C12.6666 3.46667 12.3666 3.16667 12 3.16667Z" fill="#707070"/>
</g>
<defs>
<clipPath id="clip0_7_840">
<rect width="16" height="16" fill="white" transform="translate(0 0.5)"/>
</clipPath>
</defs>
</svg>
