<svg width="16" height="16" viewBox="0 0 16 16" fill="none" xmlns="http://www.w3.org/2000/svg">
<path d="M11.6867 5.17999C11.64 5.17333 11.5934 5.17333 11.5467 5.17999C10.5134 5.14666 9.69336 4.29999 9.69336 3.25999C9.69336 2.19999 10.5534 1.33333 11.62 1.33333C12.68 1.33333 13.5467 2.19333 13.5467 3.25999C13.54 4.29999 12.72 5.14666 11.6867 5.17999Z" fill="white"/>
<path d="M13.86 9.79999C13.1133 10.3 12.0666 10.4867 11.1 10.36C11.3533 9.81333 11.4866 9.20666 11.4933 8.56666C11.4933 7.89999 11.3467 7.26666 11.0667 6.71333C12.0533 6.57999 13.1 6.76666 13.8533 7.26666C14.9067 7.95999 14.9067 9.09999 13.86 9.79999Z" fill="white"/>
<path d="M4.29334 5.17999C4.34 5.17333 4.38667 5.17333 4.43334 5.17999C5.46667 5.14666 6.28667 4.29999 6.28667 3.25999C6.28667 2.19333 5.42667 1.33333 4.36 1.33333C3.3 1.33333 2.44 2.19333 2.44 3.25999C2.44 4.29999 3.26 5.14666 4.29334 5.17999Z" fill="white"/>
<path d="M4.36668 8.56666C4.36668 9.21333 4.50668 9.82666 4.76002 10.38C3.82002 10.48 2.84002 10.28 2.12002 9.80666C1.06668 9.10666 1.06668 7.96666 2.12002 7.26666C2.83335 6.78666 3.84002 6.59333 4.78668 6.7C4.51335 7.26 4.36668 7.89333 4.36668 8.56666Z" fill="white"/>
<path d="M8.08001 10.58C8.02668 10.5733 7.96668 10.5733 7.90668 10.58C6.68001 10.54 5.70001 9.53333 5.70001 8.29333C5.70668 7.02667 6.72668 6 8.00001 6C9.26668 6 10.2933 7.02667 10.2933 8.29333C10.2867 9.53333 9.31335 10.54 8.08001 10.58Z" fill="white"/>
<path d="M5.91333 11.96C4.90666 12.6333 4.90666 13.74 5.91333 14.4067C7.05999 15.1733 8.93999 15.1733 10.0867 14.4067C11.0933 13.7333 11.0933 12.6267 10.0867 11.96C8.94666 11.1933 7.06666 11.1933 5.91333 11.96Z" fill="white"/>
</svg>
